<svg viewBox="0 0 516 403" fill="none" xmlns="http://www.w3.org/2000/svg">
<circle cx="258" cy="179.613" r="179.613" fill="#EAF9FF"/>
<circle cx="258" cy="179.613" r="140.387" fill="#C7DDF1"/>
<path d="M252.741 356.685C236.25 373.54 213.25 384 187.806 384C157.437 384 130.549 369.097 114.055 346.205C105.914 368.268 84.6972 384 59.8064 384C27.8809 384 2 358.119 2 326.194C2 294.268 27.8809 268.387 59.8064 268.387C74.2521 268.387 87.4602 273.686 97.5931 282.446C102.895 237.327 141.263 202.323 187.806 202.323C219.166 202.323 246.814 218.213 263.137 242.381C276.729 231.524 293.961 225.032 312.71 225.032C347.303 225.032 376.735 247.132 387.657 277.984C395.983 273.192 405.639 270.452 415.935 270.452C446.162 270.452 470.871 294.072 472.612 323.861C475.868 322.698 479.376 322.065 483.032 322.065C500.135 322.065 514 335.929 514 353.032C514 370.135 500.135 384 483.032 384C471.235 384 460.979 377.404 455.751 367.699C445.504 377.78 431.446 384 415.935 384C396.802 384 379.879 374.535 369.593 360.032C355.159 374.819 335.006 384 312.71 384C288.776 384 267.312 373.421 252.741 356.685Z" fill="white"/>
<path d="M2 326.194C2 294.268 27.8809 268.387 59.8064 268.387C74.2521 268.387 87.4602 273.686 97.5931 282.446C102.895 237.327 141.263 202.323 187.806 202.323C219.166 202.323 246.814 218.213 263.137 242.381C276.729 231.524 293.961 225.032 312.71 225.032C347.303 225.032 376.735 247.132 387.657 277.984C395.983 273.192 405.639 270.452 415.935 270.452C446.162 270.452 470.871 294.072 472.612 323.861C475.868 322.698 479.376 322.065 483.032 322.065C500.135 322.065 514 335.929 514 353.032" stroke="#184680" stroke-width="2.06618" stroke-linecap="round"/>
<path d="M349.171 351.667C349.978 352.474 351.285 352.474 352.091 351.667L362.686 341.073C362.722 341.036 362.779 340.939 362.843 340.815C363.154 340.215 363.29 339.529 363.29 338.853V338.853L363.29 90.8387L154.774 90.8387L154.774 337.82L154.774 338.853C154.774 339.885 155.252 340.942 155.382 341.073L165.977 351.667C166.783 352.473 168.09 352.473 168.896 351.667L178.886 341.677L188.876 351.667C189.682 352.473 190.99 352.473 191.796 351.667L201.786 341.677L211.776 351.667C212.582 352.473 213.889 352.473 214.695 351.667L224.685 341.677L234.675 351.667C235.481 352.473 236.788 352.473 237.594 351.667L247.584 341.677L257.574 351.667C258.38 352.473 259.688 352.473 260.494 351.667L270.484 341.677L280.473 351.667C281.28 352.473 282.587 352.473 283.393 351.667L293.383 341.677L303.373 351.667C304.179 352.473 305.486 352.473 306.292 351.667L316.282 341.677L326.272 351.667C327.078 352.473 328.386 352.474 329.192 351.667L339.182 341.677L349.171 351.667Z" fill="#E3E7F7" stroke="#0C2B42" stroke-width="1.54963"/>
<path fill-rule="evenodd" clip-rule="evenodd" d="M231.161 210.581C235.722 210.581 239.419 206.883 239.419 202.323C239.419 197.762 235.722 194.065 231.161 194.065C226.6 194.065 222.903 197.762 222.903 202.323C222.903 206.883 226.6 210.581 231.161 210.581ZM286.903 210.581C291.464 210.581 295.161 206.883 295.161 202.323C295.161 197.762 291.464 194.065 286.903 194.065C282.342 194.065 278.645 197.762 278.645 202.323C278.645 206.883 282.342 210.581 286.903 210.581Z" fill="#0C2B42"/>
<path d="M293.097 255.368C285.655 244.529 273.174 237.419 259.032 237.419C244.891 237.419 232.409 244.529 224.968 255.368" stroke="#0C2B42" stroke-width="2.58272" stroke-linecap="round"/>
<circle cx="191.935" cy="59.871" r="6.19355" stroke="#0C2B42" stroke-width="1.54963"/>
<circle cx="423.161" cy="253.935" r="4.12903" stroke="#0C2B42" stroke-width="1.54963"/>
<path d="M191.936 128H284.839M191.936 149.677H247.677" stroke="#ABC0DC" stroke-width="1.54963" stroke-linecap="round"/>
<path d="M175.419 315.871H342.645M175.419 295.226H275.755" stroke="#ABC0DC" stroke-width="1.54963" stroke-linecap="round"/>
<circle cx="100.064" cy="221.935" r="9.29032" stroke="#0C2B42" stroke-width="1.54963"/>
<path d="M379.878 92.9033H400.452M365.355 75.0923V57.8065" stroke="#6E7191" stroke-width="1.54963" stroke-linecap="round"/>
<path d="M378.667 78.7528L392.352 65.0679" stroke="#6E7191" stroke-width="1.54963" stroke-linecap="round"/>
<ellipse cx="259.032" cy="393.29" rx="104.258" ry="9.29032" fill="#ABC0DC"/>
</svg>
